{"glyphs":{":":{"x_min":0,"x_max":195,"ha":195,"o":"m 58 309 q 58 326 69 336 q 80 346 98 346 q 117 346 127 336 q 137 326 137 309 q 137 291 127 280 q 117 270 98 270 q 80 270 69 280 q 58 291 58 309 z m 58 28 q 58 45 69 55 q 80 65 98 65 q 117 65 127 55 q 137 45 137 28 q 137 10 127 0 q 117 -11 98 -11 q 80 -11 69 0 q 58 10 58 28 z"},"$":{"x_min":0,"x_max":491,"ha":491,"o":"m 265 -10 l 265 -108 q 265 -115 256 -115 q 246 -115 246 -108 l 246 -11 q 240 -12 227 -12 q 192 -12 160 -4 q 129 3 91 22 q 86 25 84 29 q 83 33 82 41 l 67 171 l 67 172 q 67 176 72 176 q 77 177 78 173 q 88 105 130 54 q 172 3 246 2 l 246 294 l 229 304 q 181 332 154 353 q 126 374 106 406 q 87 437 87 481 q 87 549 133 589 q 179 629 246 635 l 246 719 q 246 723 249 725 q 252 727 256 727 q 259 727 262 725 q 265 723 265 719 l 265 636 l 267 636 q 322 636 381 612 q 396 606 396 595 l 405 489 q 405 485 400 485 q 394 485 393 489 q 389 539 357 579 q 325 619 265 623 l 265 347 l 280 338 q 332 307 360 286 q 389 266 410 234 q 430 202 430 157 q 430 92 388 46 q 345 -1 265 -10 z m 246 358 l 246 623 q 190 620 164 586 q 138 551 138 504 q 138 455 166 422 q 194 390 246 358 z m 375 122 q 375 177 346 214 q 317 250 265 282 l 265 3 q 313 7 344 36 q 375 65 375 122 z"},"?":{"x_min":0,"x_max":327,"ha":327,"o":"m 110 565 q 106 547 99 537 q 92 527 76 527 q 62 527 54 536 q 46 546 46 558 q 46 585 80 605 q 114 625 161 625 q 218 625 255 594 q 292 563 292 505 q 292 463 274 436 q 257 408 221 372 q 185 336 171 309 q 157 282 157 248 q 157 225 163 193 q 164 190 158 189 q 153 188 152 191 q 141 217 134 252 q 126 288 126 310 q 126 341 139 362 q 152 382 178 407 q 206 434 220 457 q 235 480 235 517 q 235 560 213 586 q 191 613 157 613 q 131 613 122 600 q 113 587 110 565 z m 106 28 q 106 45 117 55 q 128 65 146 65 q 165 65 175 55 q 185 45 185 28 q 185 10 175 0 q 165 -11 146 -11 q 128 -11 117 0 q 106 10 106 28 z"},"<":{"x_min":0,"x_max":407,"ha":407,"o":"m 377 41 q 377 22 370 25 l 36 173 q 31 176 31 190 q 31 205 36 207 l 370 354 q 373 356 375 352 q 377 347 377 339 q 377 320 370 316 l 76 190 l 370 64 q 377 61 377 41 z"},"'":{"x_min":0,"x_max":138,"ha":138,"o":"m 47 609 q 47 618 64 627 q 80 636 98 639 q 116 642 115 637 l 65 366 q 64 364 60 363 q 55 362 55 365 z"},"=":{"x_min":0,"x_max":468,"ha":468,"o":"m 29 261 q 29 267 30 272 q 31 278 33 278 l 434 278 q 436 278 438 272 q 439 267 439 260 q 439 253 438 247 q 436 241 434 241 l 34 241 q 32 241 30 248 q 29 254 29 261 z m 29 121 q 29 127 30 132 q 31 138 33 138 l 434 138 q 436 138 438 132 q 439 127 439 120 q 439 113 438 107 q 436 101 434 101 l 34 101 q 32 101 30 108 q 29 114 29 121 z"},"a":{"x_min":0,"x_max":490,"ha":490,"o":"m 483 56 q 487 56 488 52 q 489 47 485 46 l 374 -7 l 370 -8 q 361 -8 352 18 q 342 43 342 79 q 306 39 266 15 q 227 -9 180 -9 q 119 -9 78 36 q 37 80 37 160 q 37 232 71 286 q 105 341 156 370 q 208 399 257 399 q 284 399 310 390 q 335 382 355 368 q 371 377 379 394 q 380 395 384 394 q 388 394 388 392 l 388 106 q 388 72 396 56 q 405 41 425 41 q 435 41 450 46 q 464 50 481 56 z m 342 95 l 342 295 q 342 331 308 356 q 274 380 232 380 q 171 380 132 326 q 94 273 94 188 q 94 113 125 66 q 156 19 209 19 q 272 19 342 95 z"},"L":{"x_min":0,"x_max":530,"ha":530,"o":"m 178 85 q 178 56 184 42 q 191 29 208 24 q 226 19 264 19 l 392 19 q 491 19 509 146 q 509 149 514 148 q 520 148 520 145 q 511 66 511 15 q 511 7 508 4 q 505 0 496 0 l 36 0 q 34 0 34 6 q 34 12 36 12 q 75 12 94 17 q 112 22 118 36 q 125 51 125 81 l 125 544 q 125 574 118 588 q 112 602 94 608 q 75 613 36 613 q 34 613 34 619 q 34 625 36 625 l 85 624 q 127 622 151 622 q 178 622 220 624 l 267 625 q 269 625 269 619 q 269 613 267 613 q 228 613 210 608 q 191 602 184 588 q 178 573 178 543 z"},"3":{"x_min":0,"x_max":435,"ha":435,"o":"m 384 175 q 384 120 360 78 q 336 35 294 12 q 252 -12 198 -12 q 106 -12 37 63 l 36 65 q 36 69 40 72 q 45 74 47 71 q 73 42 112 27 q 150 12 189 12 q 257 12 291 56 q 325 99 325 168 q 325 241 282 284 q 239 326 136 326 q 134 326 133 328 q 132 331 132 335 q 132 338 134 340 q 135 343 136 343 q 227 343 266 378 q 304 413 304 475 q 304 534 273 567 q 242 600 186 600 q 142 600 104 580 q 66 559 48 519 q 48 518 46 518 q 43 518 40 520 q 36 522 37 524 q 60 578 104 607 q 149 636 208 636 q 279 636 318 596 q 357 556 357 498 q 357 447 326 403 q 296 359 244 340 q 310 336 347 290 q 384 243 384 175 z"},";":{"x_min":0,"x_max":222,"ha":222,"o":"m 60 309 q 60 326 71 336 q 82 346 100 346 q 119 346 129 336 q 139 326 139 309 q 139 291 129 280 q 119 270 100 270 q 82 270 71 280 q 60 291 60 309 z m 164 -21 q 164 -60 146 -93 q 129 -126 95 -159 q 94 -160 92 -160 q 89 -160 87 -157 q 85 -154 87 -152 q 136 -102 136 -34 q 136 -8 126 7 q 119 -8 97 -8 q 80 -8 70 2 q 61 11 61 27 q 61 62 102 62 q 131 62 148 40 q 164 19 164 -21 z"},"J":{"x_min":0,"x_max":318,"ha":318,"o":"m 275 613 q 241 613 225 607 q 209 601 204 586 q 198 572 198 542 l 198 -34 q 198 -130 154 -187 q 111 -244 27 -244 q -6 -244 -24 -234 q -43 -223 -43 -206 q -43 -193 -36 -185 q -28 -177 -14 -177 q 1 -177 9 -183 q 17 -189 27 -201 q 35 -213 43 -219 q 51 -225 65 -225 q 104 -225 124 -182 q 144 -138 144 -43 l 144 544 q 144 574 136 588 q 129 602 108 608 q 87 613 42 613 q 40 613 40 619 q 40 625 42 625 l 99 624 q 145 622 170 622 q 195 622 233 624 l 275 625 q 277 625 277 619 q 277 613 275 613 z"},"V":{"x_min":0,"x_max":667,"ha":667,"o":"m 670 613 q 636 613 614 598 q 591 584 574 544 l 354 1 q 353 -3 343 -3 q 335 -3 332 1 l 85 542 q 68 581 48 597 q 29 613 -2 613 q -5 613 -5 619 q -5 625 -2 625 l 41 624 q 69 622 83 622 q 112 622 152 624 l 195 625 q 198 625 198 619 q 198 613 195 613 q 164 613 148 606 q 133 599 133 582 q 133 570 142 552 l 360 71 l 553 550 q 560 567 560 579 q 560 597 542 605 q 523 613 481 613 q 478 613 478 619 q 478 625 481 625 l 521 624 q 555 622 581 622 q 602 622 628 624 l 670 625 q 673 625 673 619 q 673 613 670 613 z"},"\"":{"x_min":0,"x_max":278,"ha":278,"o":"m 47 609 q 47 618 64 627 q 80 636 98 639 q 116 642 115 637 l 65 366 q 64 364 60 363 q 55 362 55 365 z m 187 609 q 187 618 204 627 q 220 636 238 639 q 256 642 255 637 l 205 366 q 204 364 200 363 q 195 362 195 365 z"},"7":{"x_min":0,"x_max":429,"ha":429,"o":"m 145 0 l 112 0 q 109 0 106 2 q 104 5 105 9 l 357 577 q 361 584 352 584 q 202 584 144 580 q 86 576 66 563 q 47 550 37 516 q 37 513 32 513 q 30 513 28 514 q 25 516 26 518 l 58 651 q 59 654 65 654 q 71 653 70 650 q 69 646 69 640 q 69 631 78 628 q 88 625 117 625 l 382 625 q 386 625 390 620 q 393 615 391 612 l 166 22 q 160 8 156 4 q 153 0 145 0 z"},"S":{"x_min":0,"x_max":485,"ha":485,"o":"m 280 338 q 332 307 360 286 q 389 266 410 234 q 430 202 430 157 q 430 110 407 72 q 384 33 338 10 q 293 -12 227 -12 q 192 -12 160 -4 q 129 3 91 22 q 86 25 84 29 q 83 33 82 41 l 67 171 l 67 172 q 67 176 72 176 q 77 177 78 173 q 88 104 131 53 q 174 2 249 2 q 302 2 338 31 q 375 60 375 122 q 375 167 355 200 q 335 232 306 254 q 278 275 229 304 q 181 332 154 353 q 126 374 106 406 q 87 437 87 481 q 87 531 112 566 q 138 601 179 618 q 220 636 267 636 q 322 636 381 612 q 396 606 396 595 l 405 489 q 405 485 400 485 q 394 485 393 489 q 389 541 354 582 q 319 623 254 623 q 194 623 166 588 q 138 553 138 504 q 138 464 157 435 q 176 406 204 386 q 231 367 280 338 z"},"}":{"x_min":0,"x_max":283,"ha":283,"o":"m 166 80 q 166 -6 156 -47 q 146 -88 118 -102 q 91 -117 33 -117 q 29 -117 29 -111 q 29 -105 33 -105 q 71 -105 92 -78 q 113 -50 115 1 q 117 123 123 172 q 129 222 150 252 q 171 281 222 305 q 170 328 150 356 q 129 385 123 434 q 117 484 115 607 q 113 658 92 686 q 71 713 33 713 q 29 713 29 719 q 29 725 33 725 q 90 725 117 710 q 144 696 155 656 q 166 615 166 529 q 166 435 183 376 q 200 317 251 311 q 254 311 254 304 q 254 298 251 298 q 200 292 183 234 q 166 175 166 80 z"},"Z":{"x_min":0,"x_max":593,"ha":593,"o":"m 460 600 q 463 605 462 606 q 462 608 455 608 q 259 608 193 603 q 127 598 104 579 q 82 560 63 502 q 63 500 59 500 q 56 500 53 502 q 50 503 51 504 l 91 655 q 91 656 95 656 q 105 656 103 653 q 102 650 102 645 q 102 633 114 629 q 125 625 160 625 l 525 625 q 530 625 532 620 q 535 615 532 612 l 131 27 l 128 21 q 128 19 136 19 l 404 19 q 474 19 507 44 q 540 69 550 130 q 551 132 556 132 q 561 132 561 130 l 547 8 q 547 5 544 2 q 542 -2 538 -2 q 389 0 60 0 q 55 0 53 4 q 51 9 54 13 z"},"x":{"x_min":0,"x_max":439,"ha":439,"o":"m 425 0 l 393 1 q 383 2 363 2 l 300 1 q 286 0 262 0 q 259 0 259 6 q 259 12 262 12 q 281 12 290 14 q 298 17 298 24 q 298 30 285 51 l 206 170 l 140 75 q 132 63 126 52 q 121 42 121 34 q 121 12 181 12 q 184 12 184 6 q 184 0 181 0 q 154 0 141 1 l 81 2 l 46 1 q 36 0 15 0 q 13 0 13 6 q 13 12 15 12 q 40 12 70 30 q 99 47 123 81 l 197 184 l 118 303 q 93 341 66 358 q 39 374 16 374 q 14 374 14 380 q 14 386 16 386 q 37 386 47 385 l 78 384 l 141 385 q 155 386 179 386 q 181 386 181 380 q 181 374 179 374 q 160 374 152 372 q 143 369 143 362 q 143 356 156 335 l 228 226 l 285 311 q 306 340 306 353 q 306 364 292 369 q 278 374 244 374 q 242 374 242 380 q 242 386 244 386 q 271 386 285 385 l 345 384 l 380 385 q 390 386 411 386 q 413 386 413 380 q 413 374 411 374 q 385 374 357 358 q 329 341 303 305 l 236 214 l 323 83 q 348 45 375 28 q 402 12 425 12 q 427 12 427 6 q 427 0 425 0 z"},")":{"x_min":0,"x_max":309,"ha":309,"o":"m 35 -117 q 33 -118 31 -116 q 29 -113 31 -111 q 108 -40 144 63 q 180 166 180 304 q 180 442 144 545 q 108 648 31 719 q 29 720 31 723 q 33 726 35 725 q 132 671 186 558 q 239 446 239 304 q 239 162 185 49 q 131 -64 35 -117 z"},"&":{"x_min":0,"x_max":692,"ha":692,"o":"m 690 0 l 596 0 q 546 0 448 78 q 367 -12 244 -12 q 184 -12 144 9 q 103 30 84 64 q 64 99 64 139 q 64 198 100 242 q 136 286 203 334 q 185 362 174 385 q 146 449 146 494 q 146 534 166 569 q 187 604 223 625 q 259 646 305 646 q 350 646 384 624 q 418 602 418 547 q 418 508 398 476 q 379 445 350 422 q 322 399 272 365 l 251 351 q 325 235 467 127 q 510 197 510 275 q 510 306 496 322 q 483 337 441 337 q 438 337 438 343 q 437 349 441 349 l 643 350 q 647 350 647 344 q 647 338 643 338 q 608 338 590 332 q 573 326 566 315 q 559 304 553 283 q 526 187 480 118 q 539 75 594 48 q 649 20 690 12 q 694 11 694 6 q 693 0 690 0 z m 244 363 q 305 406 338 444 q 370 482 370 532 q 370 577 346 602 q 322 627 280 627 q 239 627 216 602 q 194 577 194 525 q 194 450 244 363 z m 437 87 l 426 96 q 364 145 308 204 q 251 263 211 322 q 167 289 142 252 q 118 216 118 168 q 118 125 140 90 q 161 54 198 34 q 235 13 281 13 q 326 13 366 32 q 406 52 437 87 z"},"_":{"x_min":0,"x_max":398,"ha":398,"o":"m 29 -55 q 29 -48 30 -42 q 32 -37 33 -37 l 364 -37 q 366 -37 368 -43 q 369 -49 369 -56 q 369 -63 368 -69 q 366 -75 364 -75 l 34 -75 q 32 -75 30 -68 q 29 -62 29 -55 z"},"v":{"x_min":0,"x_max":433,"ha":433,"o":"m 425 374 q 400 374 384 360 q 368 345 352 305 l 227 1 q 226 -3 216 -3 q 206 -3 205 1 l 68 303 q 48 347 36 360 q 23 374 4 374 q 1 374 1 380 q 1 386 4 386 q 24 386 35 385 l 65 384 l 128 385 q 142 386 166 386 q 169 386 169 380 q 169 374 166 374 q 105 374 105 350 q 105 343 109 335 l 233 64 l 335 311 q 341 328 341 338 q 341 357 322 366 q 302 374 258 374 q 256 374 256 380 q 256 386 258 386 q 285 386 299 385 l 359 384 l 394 385 q 404 386 425 386 q 427 386 427 380 q 427 374 425 374 z"},"O":{"x_min":0,"x_max":766,"ha":766,"o":"m 49 312 q 49 415 101 488 q 153 562 234 599 q 316 636 401 636 q 496 636 568 592 q 640 547 678 474 q 717 401 717 319 q 717 228 669 152 q 621 76 540 32 q 460 -12 366 -12 q 273 -12 200 32 q 128 75 88 150 q 49 224 49 312 z m 653 291 q 653 385 616 458 q 580 532 514 573 q 447 614 359 614 q 243 614 178 542 q 113 470 113 346 q 113 253 150 176 q 186 98 252 53 q 318 8 402 8 q 473 8 530 41 q 587 74 620 138 q 653 202 653 291 z"},"(":{"x_min":0,"x_max":309,"ha":309,"o":"m 274 725 q 276 726 278 724 q 280 721 278 719 q 201 648 165 545 q 129 442 129 304 q 129 166 165 63 q 201 -40 278 -111 q 280 -112 278 -115 q 276 -118 274 -117 q 177 -63 124 50 q 70 162 70 304 q 70 446 124 559 q 178 672 274 725 z"},"C":{"x_min":0,"x_max":669,"ha":669,"o":"m 591 599 q 599 594 602 590 q 604 585 605 575 l 616 470 q 616 467 611 466 q 606 466 605 469 q 569 615 374 615 q 296 615 236 582 q 177 548 144 487 q 111 426 111 346 q 111 252 152 172 q 193 93 261 46 q 329 0 408 0 q 482 0 536 39 q 589 78 614 158 q 614 161 618 161 q 621 161 624 160 q 626 159 626 157 l 612 50 q 610 38 608 34 q 605 31 596 27 q 507 -12 405 -12 q 285 -12 205 36 q 125 85 87 160 q 49 236 49 319 q 49 410 100 482 q 151 555 235 596 q 319 636 413 636 q 462 636 512 626 q 561 616 591 599 z"},"W":{"x_min":0,"x_max":924,"ha":924,"o":"m 927 613 q 892 613 868 598 q 843 583 832 544 l 671 1 q 671 -3 660 -3 q 650 -3 649 1 l 459 537 l 301 1 q 300 -3 290 -3 q 281 -3 278 1 l 85 542 q 72 581 51 597 q 30 613 -2 613 q -5 613 -5 619 q -5 625 -2 625 l 41 624 q 69 622 83 622 q 131 622 177 624 q 193 625 218 625 q 220 625 220 619 q 220 613 218 613 q 135 613 135 572 q 135 561 139 552 l 305 90 l 462 625 q 464 628 473 628 q 484 628 484 625 l 675 89 l 811 550 q 814 559 814 567 q 814 613 715 613 q 712 613 712 619 q 712 625 715 625 l 764 624 q 806 622 839 622 q 858 622 886 624 l 927 625 q 930 625 930 619 q 930 613 927 613 z"},"A":{"x_min":0,"x_max":698,"ha":698,"o":"m 694 0 q 676 0 636 2 q 598 4 580 4 q 559 4 525 2 q 493 0 477 0 q 473 0 473 6 q 473 12 477 12 q 518 12 536 20 q 554 27 554 45 q 554 59 543 84 l 424 339 l 233 339 l 143 123 q 129 89 129 67 q 129 38 153 25 q 177 12 228 12 q 233 12 233 6 q 233 0 228 0 q 210 0 176 2 q 138 4 110 4 q 85 4 51 2 q 21 0 2 0 q -3 0 -3 6 q -3 12 2 12 q 30 12 50 22 q 69 32 86 58 q 104 84 124 132 l 333 635 q 335 638 340 638 q 344 638 345 635 l 577 137 q 600 86 618 60 q 636 33 654 22 q 671 12 694 12 q 698 12 698 6 q 698 0 694 0 z m 241 358 l 416 358 l 323 556 z"},"f":{"x_min":0,"x_max":305,"ha":305,"o":"m 435 675 q 435 662 426 654 q 417 647 404 647 q 394 647 386 652 q 378 656 368 669 q 351 690 332 700 q 312 710 285 710 q 224 710 188 642 q 152 575 152 439 l 152 374 q 199 375 285 384 q 288 384 290 378 q 292 371 292 361 q 292 353 289 345 q 286 337 282 338 q 227 351 152 353 l 152 81 q 152 50 159 36 q 166 22 186 17 q 207 12 253 12 q 255 12 255 6 q 255 0 253 0 l 189 1 q 169 2 127 2 l 72 1 q 58 0 33 0 q 30 0 30 6 q 30 12 33 12 q 64 12 78 18 q 93 23 98 37 q 104 51 104 81 l 104 306 q 104 333 100 344 q 95 354 80 358 q 66 361 29 361 q 26 361 26 367 q 26 373 29 373 q 72 373 87 382 q 102 392 103 418 q 108 580 162 653 q 215 726 319 726 q 369 726 402 710 q 435 695 435 675 z"},"Q":{"x_min":0,"x_max":766,"ha":766,"o":"m 746 -156 q 748 -156 750 -160 q 751 -165 749 -166 q 696 -178 663 -178 q 595 -178 520 -134 q 445 -90 391 -11 q 383 -12 366 -12 q 273 -12 200 32 q 128 75 88 150 q 49 224 49 312 q 49 415 101 488 q 153 562 234 599 q 316 636 401 636 q 496 636 568 592 q 640 547 678 474 q 717 401 717 319 q 717 244 684 178 q 650 112 592 66 q 533 19 460 0 q 503 -70 574 -114 q 645 -159 709 -159 q 732 -159 745 -156 z m 402 8 q 473 8 530 41 q 587 74 620 138 q 653 202 653 291 q 653 385 616 458 q 580 532 514 573 q 447 614 359 614 q 243 614 178 542 q 113 470 113 346 q 113 253 150 176 q 186 98 252 53 q 318 8 402 8 z"},"w":{"x_min":0,"x_max":667,"ha":667,"o":"m 658 374 q 633 374 616 359 q 600 344 586 305 l 474 1 q 474 -3 463 -3 q 454 -3 451 1 l 317 316 l 211 1 q 210 -3 200 -3 q 191 -3 188 1 l 68 303 q 50 346 36 360 q 23 374 4 374 q 1 374 1 380 q 1 386 4 386 q 24 386 35 385 l 65 384 l 123 385 q 138 386 166 386 q 169 386 169 380 q 169 374 166 374 q 137 374 122 368 q 107 363 107 350 q 107 344 110 335 l 215 71 l 320 386 q 323 390 332 390 q 342 390 343 386 l 479 65 l 568 311 q 574 328 574 339 q 574 358 555 366 q 536 374 492 374 q 490 374 490 380 q 490 386 492 386 q 519 386 533 385 l 593 384 l 628 385 q 637 386 658 386 q 661 386 661 380 q 661 374 658 374 z"},"-":{"x_min":0,"x_max":323,"ha":323,"o":"m 27 190 q 27 207 30 207 l 291 254 q 293 255 294 248 q 296 242 296 235 q 296 228 294 222 q 293 216 291 215 l 32 168 q 30 167 28 174 q 27 182 27 190 z"},"E":{"x_min":0,"x_max":533,"ha":533,"o":"m 482 145 q 473 82 473 15 q 473 7 470 4 q 466 0 457 0 l 44 0 q 42 0 42 6 q 42 12 44 12 q 83 12 102 17 q 120 22 126 36 q 133 51 133 81 l 133 544 q 133 574 126 588 q 120 602 102 608 q 83 613 44 613 q 42 613 42 619 q 42 625 44 625 l 440 625 q 449 625 449 616 l 451 495 q 451 492 446 492 q 440 492 440 495 q 440 546 413 576 q 386 606 342 606 l 273 606 q 235 606 217 601 q 199 596 192 582 q 186 568 186 538 l 186 335 l 318 335 q 364 335 382 350 q 400 366 400 404 q 400 406 406 406 q 412 406 412 404 l 411 325 q 411 296 412 282 l 413 235 q 413 233 407 233 q 401 233 401 235 q 401 280 382 298 q 363 316 315 316 l 186 316 l 186 85 q 186 56 192 42 q 199 29 216 24 q 234 19 273 19 l 365 19 q 405 19 434 54 q 462 89 470 146 q 470 149 476 148 q 482 148 482 145 z"},"s":{"x_min":0,"x_max":338,"ha":338,"o":"m 189 221 q 223 204 243 191 q 263 178 277 158 q 291 137 291 108 q 291 58 254 24 q 216 -11 151 -11 q 98 -11 57 20 q 51 24 51 32 l 49 104 q 49 107 54 108 q 60 108 61 105 q 80 55 110 32 q 139 8 180 8 q 214 8 232 23 q 250 38 250 67 q 250 96 238 116 q 225 135 206 147 q 188 159 156 174 q 123 190 104 202 q 84 215 70 236 q 57 257 57 288 q 57 341 97 370 q 137 399 191 399 q 228 399 262 384 q 268 381 270 379 q 271 377 271 373 q 271 354 270 343 l 269 304 q 269 302 263 302 q 257 302 257 304 q 257 336 224 358 q 191 379 154 379 q 127 379 112 364 q 96 350 96 322 q 96 285 119 264 q 142 244 189 221 z"},">":{"x_min":0,"x_max":407,"ha":407,"o":"m 376 189 q 376 175 371 172 l 37 25 q 34 24 32 28 q 30 33 30 40 q 30 48 32 55 q 34 62 37 63 l 331 189 l 37 315 q 34 316 32 323 q 30 330 30 338 q 30 346 32 351 q 34 356 37 354 l 371 206 q 376 204 376 189 z"},"l":{"x_min":0,"x_max":256,"ha":256,"o":"m 41 12 q 70 12 83 17 q 96 22 101 36 q 106 51 106 81 l 106 600 q 106 637 99 653 q 92 669 74 669 q 58 669 26 654 l 24 654 q 20 654 18 659 q 17 664 21 665 l 144 724 q 146 725 149 725 q 151 725 154 723 q 156 721 156 718 l 156 81 q 156 51 160 37 q 165 23 178 18 q 192 12 221 12 q 224 12 224 6 q 224 0 221 0 q 199 0 185 1 l 131 2 l 77 1 q 64 0 41 0 q 38 0 38 6 q 38 12 41 12 z"},"8":{"x_min":0,"x_max":489,"ha":489,"o":"m 449 160 q 449 107 422 68 q 395 28 348 8 q 302 -13 246 -13 q 186 -13 141 9 q 96 31 72 70 q 49 108 49 156 q 49 218 92 274 q 134 331 193 361 q 151 391 128 422 q 106 454 106 499 q 106 541 129 572 q 152 603 188 620 q 225 636 264 636 q 305 636 338 619 q 371 602 389 573 q 407 544 407 510 q 407 464 380 424 q 354 384 308 352 q 353 325 382 300 q 411 276 430 242 q 449 207 449 160 z m 292 361 l 297 358 q 357 417 357 498 q 357 556 323 588 q 289 620 241 620 q 201 620 175 594 q 149 568 149 529 q 149 489 168 460 q 187 431 214 412 q 240 393 292 361 z m 405 137 q 405 183 383 216 q 361 250 330 272 q 300 295 246 327 q 223 341 204 354 q 156 325 130 278 q 105 232 105 179 q 105 131 126 91 q 147 51 184 28 q 222 4 271 4 q 332 4 368 38 q 405 73 405 137 z"},"\\":{"x_min":0,"x_max":339,"ha":339,"o":"m 26 718 q 24 723 42 729 q 59 735 61 730 l 313 -152 q 315 -156 297 -162 q 279 -167 277 -163 z"},"e":{"x_min":0,"x_max":405,"ha":405,"o":"m 358 54 q 361 54 364 50 q 366 47 364 44 q 298 -12 221 -12 q 163 -12 121 15 q 79 42 58 86 q 37 129 37 180 q 37 240 65 289 q 93 338 142 366 q 190 395 249 395 q 301 395 330 368 q 359 342 359 296 q 359 284 356 279 q 354 274 347 274 l 99 273 q 94 245 94 218 q 94 130 136 75 q 179 20 253 20 q 312 20 357 54 z m 102 284 l 299 289 q 299 330 276 352 q 253 375 215 375 q 171 375 142 352 q 114 328 102 284 z"},"b":{"x_min":0,"x_max":508,"ha":508,"o":"m 470 214 q 470 142 438 90 q 407 39 356 13 q 305 -13 249 -13 q 173 -13 115 30 l 42 -4 l 40 -4 q 36 -4 35 0 q 34 3 37 6 q 71 30 84 48 q 97 66 97 103 l 97 599 q 97 636 90 652 q 82 668 64 668 q 47 668 16 654 l 14 654 q 11 654 10 659 q 8 664 12 665 l 132 724 l 137 725 q 139 725 142 723 q 144 721 144 718 l 144 307 q 181 348 222 374 q 262 399 311 399 q 354 399 390 378 q 426 357 448 316 q 470 274 470 214 z m 414 182 q 414 272 377 322 q 340 371 281 371 q 244 371 211 350 q 178 328 144 291 l 144 123 q 144 83 166 56 q 189 30 220 18 q 252 6 282 6 q 344 6 379 52 q 414 97 414 182 z"},"%":{"x_min":0,"x_max":574,"ha":574,"o":"m 29 433 q 29 486 64 523 q 98 560 150 560 q 202 560 235 522 q 268 485 268 430 q 268 376 234 340 q 201 303 150 303 q 98 303 64 340 q 29 378 29 433 z m 103 -6 q 99 -6 90 -1 q 82 4 83 6 l 454 550 q 454 551 456 551 q 461 551 469 546 q 477 540 476 538 l 105 -5 z m 215 423 q 215 485 197 518 q 179 550 144 550 q 108 550 95 520 q 82 490 82 436 q 82 313 157 313 q 192 313 204 340 q 215 368 215 423 z m 306 125 q 306 178 340 216 q 375 253 427 253 q 479 253 512 215 q 545 177 545 123 q 545 68 512 32 q 478 -5 427 -5 q 375 -5 340 32 q 306 70 306 125 z m 492 116 q 492 242 421 242 q 386 242 372 212 q 359 182 359 129 q 359 6 434 6 q 469 6 480 34 q 492 61 492 116 z"},"m":{"x_min":0,"x_max":760,"ha":760,"o":"m 738 0 q 715 0 702 1 l 649 2 l 597 1 q 583 0 560 0 q 558 0 558 6 q 558 12 560 12 q 589 12 602 17 q 616 22 621 36 q 626 51 626 81 l 626 244 q 626 305 604 334 q 583 363 537 363 q 506 363 474 344 q 441 326 414 293 q 415 288 415 275 l 415 81 q 415 51 420 36 q 425 22 438 17 q 452 12 481 12 q 483 12 483 6 q 483 0 481 0 q 458 0 444 1 l 392 2 l 339 1 q 326 0 303 0 q 300 0 300 6 q 300 12 303 12 q 332 12 345 17 q 358 22 363 36 q 368 51 368 81 l 368 244 q 368 305 346 334 q 325 363 280 363 q 249 363 217 345 q 185 327 158 294 l 158 81 q 158 51 162 36 q 167 22 180 17 q 194 12 223 12 q 226 12 226 6 q 226 0 223 0 q 200 0 187 1 l 135 2 l 82 1 q 69 0 46 0 q 43 0 43 6 q 43 12 46 12 q 75 12 88 17 q 101 22 106 36 q 111 51 111 81 l 111 281 q 111 316 103 331 q 95 346 75 346 q 59 346 19 331 l 17 331 q 13 331 12 336 q 10 340 14 342 l 125 394 q 127 395 130 395 q 138 395 148 372 q 158 350 158 315 l 158 311 q 195 356 231 376 q 267 396 306 396 q 351 396 378 374 q 406 351 413 307 q 451 354 488 375 q 525 396 564 396 q 617 396 645 366 q 673 336 673 275 l 673 81 q 673 51 678 36 q 682 22 696 17 q 709 12 738 12 q 741 12 741 6 q 741 0 738 0 z"},"#":{"x_min":0,"x_max":526,"ha":526,"o":"m 468 295 q 468 288 466 282 q 465 276 463 276 l 388 276 l 359 115 l 428 115 q 430 115 432 109 q 433 103 433 96 q 433 89 432 83 q 430 77 428 77 l 352 77 l 325 -78 q 325 -81 315 -81 q 307 -81 299 -79 q 291 -77 292 -75 l 319 77 l 165 77 l 138 -78 q 138 -81 128 -81 q 120 -81 112 -79 q 104 -77 105 -75 l 132 77 l 63 77 q 61 77 60 84 q 58 90 58 97 q 58 104 60 110 q 61 115 62 115 l 139 115 l 167 276 l 98 276 q 96 276 94 282 q 93 289 93 296 q 93 302 94 308 q 95 313 97 313 l 174 313 l 204 482 q 204 484 211 484 q 219 484 228 482 q 237 479 236 476 l 207 313 l 361 313 l 391 482 q 391 484 398 484 q 406 484 415 482 q 424 479 423 476 l 394 313 l 463 313 q 465 313 466 308 q 468 302 468 295 z m 326 115 l 354 276 l 201 276 l 172 115 z"},",":{"x_min":0,"x_max":222,"ha":222,"o":"m 164 -21 q 164 -60 146 -93 q 129 -126 95 -159 q 94 -160 92 -160 q 89 -160 87 -157 q 85 -154 87 -152 q 136 -102 136 -34 q 136 -8 126 7 q 119 -8 97 -8 q 80 -8 70 2 q 61 11 61 27 q 61 62 102 62 q 131 62 148 40 q 164 19 164 -21 z"},"n":{"x_min":0,"x_max":515,"ha":515,"o":"m 492 0 q 469 0 456 1 l 404 2 l 351 1 q 338 0 315 0 q 312 0 312 6 q 312 12 315 12 q 344 12 357 17 q 370 22 375 36 q 380 51 380 81 l 380 248 q 380 309 357 337 q 334 365 285 365 q 253 365 220 346 q 186 328 158 296 l 158 81 q 158 51 162 36 q 167 22 180 17 q 194 12 223 12 q 226 12 226 6 q 226 0 223 0 q 200 0 187 1 l 135 2 l 82 1 q 69 0 46 0 q 43 0 43 6 q 43 12 46 12 q 75 12 88 17 q 101 22 106 36 q 111 51 111 81 l 111 281 q 111 316 103 331 q 95 346 75 346 q 59 346 19 331 l 17 331 q 13 331 12 336 q 10 340 14 342 l 125 394 q 127 395 130 395 q 138 395 148 372 q 158 350 158 315 l 158 311 q 198 357 235 378 q 272 399 312 399 q 368 399 398 369 q 427 339 427 278 l 427 81 q 427 51 432 36 q 436 22 450 17 q 463 12 492 12 q 495 12 495 6 q 495 0 492 0 z"},"h":{"x_min":0,"x_max":496,"ha":496,"o":"m 474 0 q 451 0 437 1 l 385 2 l 332 1 q 319 0 296 0 q 293 0 293 6 q 293 12 296 12 q 325 12 338 17 q 351 22 356 36 q 361 51 361 81 l 361 244 q 361 305 338 334 q 315 363 267 363 q 235 363 201 344 q 167 326 139 294 l 139 81 q 139 51 144 36 q 149 22 162 17 q 176 12 205 12 q 207 12 207 6 q 207 0 205 0 q 182 0 168 1 l 116 2 l 63 1 q 50 0 27 0 q 24 0 24 6 q 24 12 27 12 q 56 12 69 17 q 82 22 87 36 q 92 51 92 81 l 92 600 q 92 637 85 653 q 78 669 60 669 q 43 669 12 654 l 10 654 q 6 654 4 659 q 3 664 7 665 l 130 725 l 132 725 q 139 725 139 718 l 139 309 q 179 355 216 376 q 254 396 294 396 q 349 396 378 366 q 408 335 408 275 l 408 81 q 408 51 413 36 q 418 22 432 17 q 445 12 474 12 q 476 12 476 6 q 476 0 474 0 z"},"z":{"x_min":0,"x_max":405,"ha":405,"o":"m 288 367 q 292 374 283 374 q 198 374 156 368 q 113 363 90 345 q 67 327 56 289 q 56 287 52 287 q 49 287 46 288 q 43 290 44 291 l 76 413 q 77 415 83 414 q 89 414 88 412 q 84 397 94 392 q 105 386 135 386 l 342 386 q 346 386 349 382 q 352 378 350 374 l 112 21 q 108 14 117 14 q 226 14 266 18 q 305 23 322 41 q 339 59 356 109 q 357 111 362 111 q 367 111 367 109 l 365 11 q 365 7 362 4 q 360 0 356 0 l 51 0 q 47 0 44 4 q 42 8 44 12 z"},"B":{"x_min":0,"x_max":549,"ha":549,"o":"m 499 185 q 499 131 474 88 q 449 45 405 20 q 361 -4 308 -4 q 274 -4 236 -1 q 222 0 203 1 q 184 2 160 2 l 94 1 q 76 0 44 0 q 42 0 42 6 q 42 12 44 12 q 84 12 102 17 q 121 22 128 36 q 135 51 135 81 l 135 544 q 135 574 128 588 q 122 602 104 608 q 85 613 46 613 q 43 613 43 619 q 43 625 46 625 l 94 624 q 134 622 160 622 q 178 622 194 623 q 210 624 222 625 q 253 628 277 628 q 360 628 400 590 q 439 553 439 495 q 439 446 408 410 q 377 373 325 353 q 403 348 451 301 q 499 254 499 185 z m 187 542 l 187 352 l 234 351 q 313 351 349 388 q 385 426 385 488 q 385 544 354 580 q 322 615 254 615 q 226 615 213 611 q 200 607 194 592 q 187 577 187 542 z m 441 160 q 441 236 394 284 q 348 331 269 332 q 232 333 187 330 l 187 81 q 187 54 196 40 q 204 25 227 18 q 250 12 294 12 q 368 12 404 50 q 441 89 441 160 z"},"K":{"x_min":0,"x_max":649,"ha":649,"o":"m 635 0 l 523 0 q 488 0 481 4 q 474 8 444 50 q 415 92 373 145 l 214 342 l 179 308 l 179 81 q 179 50 186 36 q 192 22 210 17 q 228 12 268 12 q 270 12 270 6 q 270 0 268 0 q 238 0 220 1 l 152 2 l 86 1 q 68 0 36 0 q 34 0 34 6 q 34 12 36 12 q 75 12 94 17 q 112 22 119 36 q 126 51 126 81 l 126 544 q 126 574 120 588 q 113 602 94 608 q 76 613 37 613 q 35 613 35 619 q 35 625 37 625 l 86 624 q 128 622 152 622 q 179 622 221 624 l 268 625 q 270 625 270 619 q 270 613 268 613 q 229 613 210 607 q 192 601 186 586 q 179 572 179 542 l 179 331 l 399 550 q 433 584 433 597 q 433 606 420 610 q 406 613 375 613 q 373 613 373 619 q 373 625 375 625 l 417 624 q 455 622 488 622 q 519 622 553 624 l 588 625 q 591 625 591 619 q 591 613 588 613 q 547 613 504 598 q 460 582 422 544 l 252 378 l 395 198 q 471 103 511 64 q 551 25 572 18 q 593 12 635 12 q 638 12 638 6 q 638 0 635 0 z"},"R":{"x_min":0,"x_max":667,"ha":667,"o":"m 676 0 l 560 0 q 534 0 463 86 q 392 173 291 326 q 261 318 230 318 q 213 318 187 320 l 187 81 q 187 50 194 36 q 200 22 218 17 q 236 12 276 12 q 279 12 279 6 q 279 0 276 0 q 246 0 228 1 l 160 2 l 94 1 q 76 0 44 0 q 42 0 42 6 q 42 12 44 12 q 84 12 102 17 q 121 22 128 36 q 135 51 135 81 l 135 544 q 135 574 128 588 q 122 602 104 608 q 85 613 46 613 q 43 613 43 619 q 43 625 46 625 l 94 624 q 134 622 160 622 q 178 622 194 623 q 210 624 222 625 q 253 628 277 628 q 356 628 398 595 q 440 562 440 503 q 440 455 412 412 q 384 370 338 345 q 425 217 483 146 q 541 75 586 44 q 632 12 676 12 q 679 12 679 6 q 679 0 676 0 z m 247 340 q 320 340 352 370 q 384 401 384 469 q 384 545 348 580 q 313 615 254 615 q 226 615 213 611 q 200 607 194 592 q 187 577 187 542 l 187 344 q 225 340 247 340 z"},"T":{"x_min":0,"x_max":632,"ha":632,"o":"m 49 471 q 49 469 43 469 q 37 469 37 471 q 41 498 46 558 q 51 617 51 647 q 51 652 57 652 q 63 652 63 647 q 63 625 116 625 q 202 622 317 622 q 376 622 442 624 l 510 625 q 546 625 563 630 q 580 635 585 650 q 586 654 591 654 q 596 654 596 650 q 593 622 590 564 q 587 507 587 471 q 587 469 581 469 q 575 469 575 471 q 575 524 564 553 q 553 582 527 595 q 501 608 454 608 q 402 608 381 604 q 360 601 352 588 q 345 575 345 542 l 345 81 q 345 50 352 36 q 359 22 380 17 q 401 12 446 12 q 448 12 448 6 q 448 0 446 0 q 413 0 394 1 l 317 2 l 244 1 q 224 0 189 0 q 187 0 187 6 q 187 12 189 12 q 234 12 255 17 q 276 22 284 36 q 291 51 291 81 l 291 544 q 291 577 283 590 q 275 602 254 605 q 234 608 180 608 q 117 608 88 578 q 59 548 49 471 z"},"P":{"x_min":0,"x_max":540,"ha":540,"o":"m 311 12 q 314 12 314 6 q 314 0 311 0 q 270 0 247 1 l 160 2 l 94 1 q 76 0 44 0 q 42 0 42 6 q 42 12 44 12 q 83 12 102 17 q 120 22 126 36 q 133 51 133 81 l 133 544 q 133 574 126 588 q 120 602 102 608 q 83 613 44 613 q 42 613 42 619 q 42 625 44 625 l 93 624 q 135 622 159 622 q 183 622 214 625 q 292 628 299 628 q 387 628 442 588 q 497 547 497 464 q 497 397 464 352 q 431 306 380 284 q 330 262 276 262 q 246 262 227 267 q 224 267 224 272 q 224 275 226 278 q 227 281 229 280 q 245 276 265 276 q 336 276 386 319 q 435 362 435 444 q 435 497 414 536 q 393 574 356 594 q 320 615 276 615 q 235 615 218 611 q 201 607 194 592 q 186 578 186 542 l 186 85 q 186 53 195 38 q 204 24 230 18 q 255 12 311 12 z"},"|":{"x_min":0,"x_max":168,"ha":168,"o":"m 67 731 q 67 738 86 738 q 104 738 104 731 l 104 -154 q 104 -158 98 -160 q 93 -162 86 -162 q 78 -162 72 -160 q 67 -158 67 -154 z"},"t":{"x_min":0,"x_max":339,"ha":339,"o":"m 308 47 q 311 47 313 42 q 315 38 312 36 q 275 10 247 -1 q 219 -12 189 -12 q 148 -12 122 6 q 96 25 96 68 l 96 306 q 96 333 92 344 q 89 354 79 358 q 69 361 44 361 q 41 361 41 367 q 41 373 44 373 q 82 373 106 394 q 129 415 129 447 q 129 450 137 450 q 144 450 144 447 l 144 374 q 212 375 285 384 q 288 384 290 378 q 292 371 292 361 q 292 353 289 345 q 286 337 282 338 q 222 353 144 353 l 144 102 q 144 19 225 19 q 271 19 306 46 z"},"M":{"x_min":0,"x_max":830,"ha":830,"o":"m 807 0 q 776 0 758 1 l 691 2 l 629 1 q 614 0 587 0 q 585 0 585 6 q 585 12 587 12 q 622 12 638 18 q 655 23 660 37 q 666 51 664 81 l 647 546 l 413 7 q 411 3 405 3 q 400 3 396 7 l 152 542 l 151 544 l 143 104 q 142 52 160 32 q 178 12 227 12 q 229 12 229 6 q 229 0 227 0 q 199 0 184 1 l 130 2 l 81 1 q 68 0 42 0 q 40 0 40 6 q 40 12 42 12 q 84 12 102 32 q 119 53 120 104 l 130 578 q 99 613 49 613 q 47 613 47 619 q 47 625 49 625 l 83 624 q 93 623 109 623 q 125 623 136 624 q 147 625 153 625 q 167 625 175 616 q 183 606 199 573 l 424 87 l 648 600 q 653 611 662 618 q 670 625 678 625 q 682 625 691 624 q 700 623 716 623 l 761 624 q 771 625 792 625 q 794 625 794 619 q 794 613 792 613 q 740 613 718 600 q 697 586 698 546 l 717 81 q 718 50 724 36 q 731 22 750 17 q 768 12 807 12 q 810 12 810 6 q 810 0 807 0 z"},"g":{"x_min":0,"x_max":465,"ha":465,"o":"m 388 392 l 388 -70 q 388 -166 336 -224 q 284 -281 192 -281 q 133 -281 96 -259 q 60 -237 60 -206 q 60 -192 68 -185 q 75 -178 85 -178 q 96 -178 104 -184 q 112 -191 122 -205 q 143 -231 165 -246 q 187 -260 229 -260 q 281 -260 312 -225 q 342 -190 342 -94 l 342 79 q 306 39 266 15 q 227 -9 180 -9 q 119 -9 78 36 q 37 80 37 160 q 37 232 71 286 q 105 341 156 370 q 208 399 257 399 q 284 399 310 390 q 335 382 355 368 q 371 377 379 394 q 380 395 384 394 q 388 394 388 392 z m 342 95 l 342 295 q 342 331 308 356 q 274 380 232 380 q 171 380 132 326 q 94 273 94 188 q 94 113 125 66 q 156 19 209 19 q 272 19 342 95 z"},"j":{"x_min":0,"x_max":255,"ha":255,"o":"m 87 554 q 87 572 98 582 q 108 592 127 592 q 145 592 155 582 q 165 572 165 554 q 165 536 155 526 q 145 516 127 516 q 108 516 98 526 q 87 536 87 554 z m 159 271 l 159 -48 q 159 -116 147 -160 q 135 -203 106 -232 q 78 -261 28 -282 q 26 -283 24 -278 q 21 -272 23 -271 q 72 -250 92 -204 q 112 -158 112 -71 l 112 270 q 112 307 105 323 q 98 339 80 339 q 61 339 32 324 l 31 324 q 26 324 24 329 q 23 334 27 336 l 151 394 l 154 395 q 161 395 161 388 q 161 382 160 348 q 159 315 159 271 z"},"i":{"x_min":0,"x_max":275,"ha":275,"o":"m 98 554 q 98 572 108 582 q 119 592 138 592 q 156 592 166 582 q 176 572 176 554 q 176 536 166 526 q 156 516 138 516 q 119 516 108 526 q 98 536 98 554 z m 57 12 q 86 12 100 17 q 113 22 118 36 q 123 51 123 81 l 123 270 q 123 307 116 323 q 108 339 90 339 q 71 339 42 324 l 41 324 q 37 324 35 329 q 33 334 37 336 l 161 394 l 165 395 q 167 395 170 393 q 172 391 172 388 q 172 382 171 348 q 170 315 170 271 l 170 81 q 170 51 174 36 q 179 22 192 17 q 206 12 235 12 q 238 12 238 6 q 238 0 235 0 q 212 0 199 1 l 146 2 l 94 1 q 80 0 57 0 q 55 0 55 6 q 55 12 57 12 z"},"y":{"x_min":0,"x_max":481,"ha":481,"o":"m 401 388 l 401 -70 q 401 -164 350 -222 q 298 -281 205 -281 q 151 -281 114 -259 q 78 -237 78 -205 q 78 -191 86 -184 q 94 -178 105 -178 q 115 -178 123 -184 q 131 -191 141 -205 q 162 -231 184 -246 q 205 -260 247 -260 q 296 -260 325 -224 q 354 -188 354 -94 l 354 80 q 313 35 274 14 q 234 -7 192 -7 q 142 -7 115 24 q 88 55 88 115 l 88 270 q 88 311 82 328 q 75 346 58 346 q 43 346 22 336 l 20 336 q 16 336 15 341 q 14 346 18 347 l 123 394 l 126 395 q 129 395 132 393 q 135 391 135 388 l 135 145 q 135 85 156 56 q 177 27 219 27 q 253 27 289 46 q 325 64 354 96 l 354 270 q 354 311 348 328 q 341 346 325 346 q 310 346 289 336 l 287 336 q 283 336 282 341 q 280 346 284 347 l 389 394 l 393 395 q 395 395 398 393 q 401 391 401 388 z"},"@":{"x_min":0,"x_max":717,"ha":717,"o":"m 414 111 q 414 118 416 136 l 428 199 q 393 131 349 90 q 305 48 267 48 q 245 48 231 62 q 217 77 217 107 q 217 119 218 125 q 226 179 259 232 q 292 286 336 320 q 379 354 418 354 q 448 354 464 335 q 475 346 478 361 q 480 363 486 363 q 498 363 496 360 l 455 136 q 451 112 451 104 q 451 86 459 77 q 467 68 488 68 q 517 68 545 88 q 573 109 591 147 q 609 185 609 236 q 609 299 576 352 q 544 406 488 437 q 432 468 364 468 q 289 468 232 431 q 175 394 145 332 q 115 270 115 198 q 115 120 150 60 q 185 1 248 -32 q 310 -65 391 -65 q 439 -65 474 -56 q 510 -46 557 -20 l 558 -20 q 560 -20 562 -24 q 565 -27 563 -28 q 477 -95 360 -95 q 280 -95 216 -62 q 151 -30 114 30 q 76 91 76 173 q 76 263 121 336 q 166 409 240 450 q 314 491 396 491 q 468 491 524 460 q 580 430 610 378 q 641 326 641 264 q 641 209 617 160 q 593 110 552 80 q 512 50 467 50 q 440 50 427 66 q 414 82 414 111 z m 441 269 q 443 279 443 285 q 443 305 431 318 q 419 331 396 331 q 371 331 342 306 q 313 282 290 241 q 268 200 261 153 q 258 135 258 122 q 258 81 288 81 q 316 81 348 109 q 380 137 406 181 q 431 225 441 269 z"},".":{"x_min":0,"x_max":195,"ha":195,"o":"m 58 28 q 58 45 69 55 q 80 65 98 65 q 117 65 127 55 q 137 45 137 28 q 137 10 127 0 q 117 -11 98 -11 q 80 -11 69 0 q 58 10 58 28 z"},"p":{"x_min":0,"x_max":510,"ha":510,"o":"m 470 215 q 470 141 436 90 q 402 38 352 12 q 302 -13 256 -13 q 223 -13 197 -6 q 171 1 145 19 l 145 -194 q 145 -224 153 -238 q 161 -252 182 -258 q 203 -263 248 -263 q 250 -263 250 -269 q 250 -275 248 -275 q 214 -275 195 -274 l 123 -273 l 69 -274 q 56 -275 33 -275 q 30 -275 30 -269 q 30 -263 33 -263 q 61 -263 74 -258 q 88 -252 93 -238 q 98 -224 98 -194 l 98 278 q 98 315 90 331 q 82 347 61 347 q 37 347 6 332 l 4 332 q 0 332 -2 336 q -3 341 1 343 l 104 392 l 112 394 q 127 394 136 372 q 145 349 145 307 q 190 355 232 377 q 274 399 318 399 q 359 399 394 377 q 429 355 450 314 q 470 272 470 215 z m 415 184 q 415 270 378 318 q 340 366 282 366 q 244 366 212 346 q 179 327 145 291 l 145 74 q 174 41 208 24 q 241 7 289 7 q 324 7 353 28 q 382 50 398 90 q 415 130 415 184 z"},"X":{"x_min":0,"x_max":653,"ha":653,"o":"m 633 0 q 607 0 592 1 l 539 2 l 464 1 q 446 0 415 0 q 413 0 413 6 q 413 12 415 12 q 445 12 458 16 q 471 20 471 30 q 471 38 462 51 l 307 286 l 168 92 q 148 63 148 45 q 148 12 209 12 q 212 12 212 6 q 212 0 209 0 q 179 0 164 1 l 97 2 l 56 1 q 45 0 20 0 q 17 0 17 6 q 17 12 20 12 q 54 12 86 32 q 118 53 147 92 l 298 299 l 137 542 q 111 581 85 597 q 59 613 23 613 q 21 613 21 619 q 21 625 23 625 q 35 625 61 623 l 97 622 q 129 622 177 624 l 229 625 q 232 625 232 619 q 232 613 229 613 q 199 613 186 608 q 173 604 173 594 q 173 587 182 573 l 334 345 l 461 524 q 485 559 485 579 q 485 613 427 613 q 424 613 424 619 q 424 625 427 625 l 472 624 q 510 622 539 622 q 556 622 580 624 l 616 625 q 619 625 619 619 q 619 613 616 613 q 548 613 482 523 l 342 332 l 508 83 q 534 43 562 28 q 589 12 633 12 q 635 12 635 6 q 635 0 633 0 z"},"*":{"x_min":0,"x_max":448,"ha":448,"o":"m 235 657 q 235 666 252 675 q 270 684 288 687 q 305 690 303 685 l 236 529 q 235 526 230 526 q 226 526 226 529 z m 84 559 q 71 564 71 603 q 71 617 73 626 q 75 636 78 633 l 207 520 q 210 519 208 514 q 206 510 204 511 z m 251 503 q 249 503 248 508 q 246 512 248 513 l 374 544 q 383 546 396 532 q 410 519 418 504 q 427 488 421 488 z m 116 382 q 105 382 90 386 q 75 391 66 396 q 56 402 60 404 l 206 491 l 208 492 q 210 492 212 489 q 215 486 214 485 l 131 387 q 127 382 116 382 z m 233 481 q 232 483 236 486 q 240 490 241 488 l 310 378 q 315 370 306 353 q 297 336 284 323 q 272 310 271 315 z"},"Y":{"x_min":0,"x_max":607,"ha":607,"o":"m 611 613 q 574 613 539 590 q 504 566 476 523 l 335 309 l 335 81 q 335 50 341 36 q 347 22 365 17 q 383 12 423 12 q 426 12 426 6 q 426 0 423 0 q 393 0 376 1 l 308 2 l 240 1 q 222 0 192 0 q 189 0 189 6 q 189 12 192 12 q 231 12 250 17 q 268 22 275 36 q 282 51 282 81 l 282 294 l 111 542 q 85 581 60 597 q 35 613 -2 613 q -5 613 -5 619 q -5 625 -2 625 l 35 624 q 59 622 71 622 q 104 622 152 624 l 204 625 q 206 625 206 619 q 206 613 204 613 q 174 613 160 608 q 147 604 147 594 q 147 588 157 573 l 325 332 l 453 526 q 475 562 475 581 q 475 613 421 613 q 419 613 419 619 q 419 625 421 625 l 466 624 q 504 622 533 622 q 550 622 574 624 l 611 625 q 613 625 613 619 q 613 613 611 613 z"},"c":{"x_min":0,"x_max":407,"ha":407,"o":"m 37 185 q 37 249 68 296 q 100 344 150 370 q 199 395 251 395 q 294 395 330 378 q 365 361 365 338 q 365 326 357 318 q 349 309 336 309 q 313 309 296 337 q 283 356 266 366 q 248 375 219 375 q 159 375 126 332 q 94 288 94 214 q 94 130 137 74 q 180 19 265 19 q 329 19 368 54 l 370 54 q 373 54 376 51 q 378 48 375 46 q 341 16 306 2 q 271 -12 230 -12 q 166 -12 122 16 q 79 45 58 90 q 37 135 37 185 z"},"!":{"x_min":0,"x_max":243,"ha":243,"o":"m 122 629 q 137 629 150 626 q 162 624 161 621 q 146 534 139 435 q 132 336 125 189 q 125 187 120 187 q 115 187 115 189 q 110 333 104 434 q 97 534 82 621 q 82 624 94 626 q 107 629 122 629 z m 78 28 q 78 45 89 55 q 100 65 118 65 q 137 65 147 55 q 157 45 157 28 q 157 10 147 0 q 137 -11 118 -11 q 100 -11 89 0 q 78 10 78 28 z"},"/":{"x_min":0,"x_max":339,"ha":339,"o":"m 26 -152 l 278 730 q 280 735 298 729 q 315 723 313 718 l 62 -163 q 61 -167 43 -162 q 25 -156 26 -152 z"},"[":{"x_min":0,"x_max":274,"ha":274,"o":"m 94 715 q 94 722 96 724 q 97 725 103 725 l 236 725 q 239 725 239 719 q 239 713 236 713 q 195 713 176 707 q 156 701 149 686 q 142 672 142 642 l 142 -34 q 142 -64 149 -78 q 156 -93 176 -99 q 195 -105 236 -105 q 239 -105 239 -111 q 239 -117 236 -117 l 103 -117 q 97 -117 96 -115 q 94 -113 94 -106 z"},"6":{"x_min":0,"x_max":489,"ha":489,"o":"m 440 173 q 440 121 416 78 q 391 36 347 12 q 303 -13 248 -13 q 155 -13 108 52 q 61 118 61 226 q 61 325 99 418 q 137 510 209 570 q 281 631 377 636 q 380 636 382 632 q 383 627 379 626 q 295 611 236 552 q 176 494 146 412 q 116 329 116 243 q 116 145 156 75 q 195 5 276 5 q 331 5 358 42 q 385 79 385 145 q 385 219 353 265 q 321 311 268 311 q 216 311 172 264 l 170 263 q 166 263 162 266 q 159 269 161 271 q 185 305 220 322 q 254 340 292 340 q 338 340 372 316 q 405 293 422 255 q 440 217 440 173 z"},"r":{"x_min":0,"x_max":360,"ha":360,"o":"m 330 357 q 330 347 322 339 q 315 331 301 331 q 291 331 283 336 q 275 342 273 343 q 254 358 235 358 q 221 358 206 346 q 190 334 158 295 l 158 81 q 158 51 165 36 q 172 22 192 17 q 213 12 258 12 q 261 12 261 6 q 261 0 258 0 q 226 0 207 1 l 135 2 l 82 1 q 69 0 46 0 q 43 0 43 6 q 43 12 46 12 q 75 12 88 17 q 101 22 106 36 q 111 51 111 81 l 111 281 q 111 316 103 331 q 95 346 75 346 q 59 346 19 331 l 17 331 q 13 331 12 336 q 10 340 14 342 l 125 394 q 127 395 130 395 q 138 395 148 372 q 158 350 158 315 l 158 309 q 199 359 223 377 q 247 395 269 395 q 291 395 310 384 q 330 372 330 357 z"},"2":{"x_min":0,"x_max":449,"ha":449,"o":"m 33 9 q 55 36 93 82 q 164 168 208 228 q 253 288 284 352 q 315 417 315 474 q 315 530 284 565 q 252 600 194 600 q 142 600 106 570 q 70 540 51 484 q 51 483 47 483 q 39 483 40 487 q 56 559 102 598 q 148 636 216 636 q 287 636 329 595 q 371 554 371 490 q 371 431 336 365 q 302 299 257 244 q 212 188 148 117 q 107 73 88 48 q 83 41 92 41 q 229 41 283 44 q 337 48 360 62 q 383 75 385 109 q 385 111 390 111 q 396 111 396 109 l 394 11 q 394 7 392 4 q 389 0 385 0 l 40 0 q 35 0 32 4 q 30 7 33 9 z"},"{":{"x_min":0,"x_max":289,"ha":289,"o":"m 32 311 q 83 317 100 376 q 117 435 117 529 q 117 615 128 656 q 139 696 166 710 q 193 725 250 725 q 254 725 254 719 q 254 713 250 713 q 212 713 191 686 q 170 658 168 607 q 166 484 160 434 q 154 385 134 356 q 113 328 61 305 q 112 281 133 252 q 154 222 160 172 q 166 123 168 1 q 170 -50 191 -78 q 212 -105 250 -105 q 254 -105 254 -111 q 254 -117 250 -117 q 192 -117 164 -102 q 137 -88 127 -47 q 117 -6 117 80 q 117 175 100 234 q 83 292 32 298 q 29 298 29 304 q 29 311 32 311 z"},"9":{"x_min":0,"x_max":489,"ha":489,"o":"m 49 457 q 49 510 74 550 q 98 591 142 614 q 185 636 240 636 q 334 636 381 571 q 428 506 428 398 q 428 299 390 206 q 352 114 280 54 q 208 -6 112 -12 q 109 -13 108 -8 q 106 -2 110 -1 q 194 14 254 72 q 313 130 343 212 q 373 294 373 380 q 373 479 334 549 q 294 619 213 619 q 158 619 131 584 q 104 550 104 487 q 104 409 140 361 q 177 313 234 313 q 255 313 274 322 q 292 330 317 353 q 318 354 320 354 q 323 354 326 351 q 328 348 327 346 q 305 318 274 304 q 243 289 205 289 q 156 289 120 312 q 85 336 67 374 q 49 412 49 457 z"}," ":{"x_min":0,"x_max":234,"ha":234,"o":""},"I":{"x_min":0,"x_max":330,"ha":330,"o":"m 281 12 q 283 12 283 6 q 283 0 281 0 q 251 0 234 1 l 164 2 l 97 1 q 79 0 48 0 q 45 0 45 6 q 45 12 48 12 q 87 12 106 17 q 124 22 131 36 q 138 51 138 81 l 138 544 q 138 574 131 588 q 124 602 106 608 q 87 613 48 613 q 45 613 45 619 q 45 625 48 625 l 97 624 q 139 622 164 622 q 192 622 234 624 l 281 625 q 283 625 283 619 q 283 613 281 613 q 242 613 224 607 q 205 601 198 586 q 192 572 192 542 l 192 81 q 192 50 198 36 q 205 22 223 17 q 241 12 281 12 z"},"H":{"x_min":0,"x_max":758,"ha":758,"o":"m 720 0 q 689 0 672 1 l 605 2 l 536 1 q 519 0 489 0 q 486 0 486 6 q 486 12 489 12 q 529 12 547 17 q 565 22 572 36 q 578 50 578 81 l 578 316 l 179 316 l 179 81 q 179 50 186 36 q 192 22 210 17 q 228 12 268 12 q 270 12 270 6 q 270 0 268 0 q 238 0 220 1 l 152 2 l 86 1 q 68 0 36 0 q 34 0 34 6 q 34 12 36 12 q 75 12 94 17 q 112 22 119 36 q 126 51 126 81 l 126 544 q 126 574 120 588 q 113 602 94 608 q 76 613 37 613 q 35 613 35 619 q 35 625 37 625 l 86 624 q 128 622 152 622 q 179 622 221 624 l 268 625 q 270 625 270 619 q 270 613 268 613 q 229 613 210 607 q 192 601 186 586 q 179 572 179 542 l 179 335 l 578 335 l 578 542 q 578 572 572 586 q 565 601 546 607 q 528 613 489 613 q 486 613 486 619 q 486 625 489 625 l 536 624 q 578 622 605 622 q 630 622 672 624 l 720 625 q 723 625 723 619 q 723 613 720 613 q 681 613 662 608 q 644 602 637 588 q 630 574 630 544 l 630 81 q 630 51 637 36 q 644 22 662 17 q 681 12 720 12 q 723 12 723 6 q 723 0 720 0 z"},"4":{"x_min":0,"x_max":468,"ha":468,"o":"m 422 198 q 422 177 418 177 l 390 178 q 350 180 329 180 l 329 81 q 329 50 334 36 q 340 22 356 17 q 371 12 406 12 q 408 12 408 6 q 408 0 406 0 q 380 0 365 1 l 304 2 l 231 1 q 212 0 179 0 q 176 0 176 6 q 176 12 179 12 q 228 12 248 16 q 267 20 274 34 q 280 47 280 81 l 280 182 q 142 184 22 184 q 17 184 14 188 q 12 191 15 195 l 313 630 q 315 632 319 632 q 329 632 329 626 l 329 216 l 418 219 q 422 219 422 198 z m 280 215 l 280 544 l 63 220 q 59 213 68 213 q 158 213 280 215 z"},"~":{"x_min":0,"x_max":443,"ha":443,"o":"m 389 233 l 390 233 q 393 233 396 230 q 398 228 396 226 q 362 185 340 171 q 318 157 292 157 q 273 157 256 162 q 238 166 213 175 q 187 184 169 188 q 151 193 130 193 q 106 193 94 186 q 81 179 70 168 q 59 158 55 154 l 54 154 q 52 154 50 156 q 47 159 48 161 q 104 230 159 230 q 173 230 191 225 q 209 220 227 214 q 253 204 273 199 q 293 194 313 194 q 342 194 358 204 q 373 214 389 233 z"},"D":{"x_min":0,"x_max":688,"ha":688,"o":"m 232 -1 q 218 0 198 1 q 177 2 152 2 l 86 1 q 68 0 36 0 q 34 0 34 6 q 34 12 36 12 q 75 12 94 17 q 112 22 119 36 q 126 51 126 81 l 126 544 q 126 574 120 588 q 113 602 94 608 q 76 613 37 613 q 35 613 35 619 q 35 625 37 625 l 86 624 q 128 622 152 622 q 187 622 223 625 q 267 627 283 627 q 388 627 469 587 q 550 547 594 478 q 639 409 639 323 q 639 226 592 152 q 546 77 468 36 q 390 -4 297 -4 q 268 -4 232 -1 z m 574 301 q 574 389 540 460 q 505 531 440 572 q 376 614 292 614 q 248 614 224 609 q 201 604 190 588 q 179 573 179 542 l 179 92 q 179 62 188 44 q 197 26 220 18 q 243 9 287 9 q 371 9 436 43 q 501 77 538 143 q 574 209 574 301 z"},"^":{"x_min":0,"x_max":392,"ha":392,"o":"m 333 379 q 333 377 329 375 q 325 373 324 375 l 196 557 l 68 375 q 67 374 65 374 q 63 374 60 376 q 57 379 58 380 l 185 629 q 186 634 196 634 q 206 634 207 629 l 333 380 z"},"0":{"x_min":0,"x_max":501,"ha":501,"o":"m 49 313 q 49 406 75 480 q 101 554 148 596 q 194 637 253 637 q 311 637 356 595 q 401 553 426 479 q 451 405 451 310 q 451 216 426 142 q 400 69 354 28 q 309 -13 251 -13 q 193 -13 147 28 q 101 70 75 144 q 49 218 49 313 z m 392 298 q 392 405 372 479 q 351 553 317 590 q 283 626 242 626 q 179 626 144 541 q 108 456 108 320 q 108 227 127 154 q 146 81 181 40 q 216 -1 263 -1 q 327 -1 360 80 q 392 160 392 298 z"},"F":{"x_min":0,"x_max":506,"ha":506,"o":"m 451 495 q 451 492 446 492 q 440 492 440 495 q 440 546 413 576 q 386 606 342 606 l 273 606 q 236 606 218 601 q 200 596 193 583 q 186 570 186 543 l 186 323 l 295 323 q 346 323 367 338 q 388 354 388 392 q 388 394 394 394 q 400 394 400 392 l 399 313 q 399 284 400 270 l 401 223 q 401 221 395 221 q 389 221 389 223 q 389 268 368 286 q 346 304 291 304 l 186 304 l 186 85 q 186 53 195 38 q 204 24 230 18 q 255 12 311 12 q 314 12 314 6 q 314 0 311 0 q 270 0 247 1 l 160 2 l 94 1 q 76 0 44 0 q 42 0 42 6 q 42 12 44 12 q 83 12 102 17 q 120 22 126 36 q 133 51 133 81 l 133 544 q 133 574 126 588 q 120 602 102 608 q 83 613 44 613 q 42 613 42 619 q 42 625 44 625 l 440 625 q 449 625 449 616 z"},"`":{"x_min":0,"x_max":213,"ha":213,"o":"m 98 716 l 154 476 q 156 474 150 472 q 145 471 144 474 l 47 727 q 45 732 58 730 q 70 729 84 724 q 98 720 98 716 z"},"k":{"x_min":0,"x_max":491,"ha":491,"o":"m 480 0 q 457 0 443 1 l 391 2 l 321 1 q 305 0 278 0 q 276 0 276 6 q 276 12 278 12 q 306 12 318 16 q 331 21 331 31 q 331 40 322 53 l 197 226 l 139 182 l 139 81 q 139 51 144 36 q 149 22 162 17 q 176 12 205 12 q 207 12 207 6 q 207 0 205 0 q 182 0 168 1 l 116 2 l 63 1 q 50 0 27 0 q 24 0 24 6 q 24 12 27 12 q 56 12 69 17 q 82 22 87 36 q 92 51 92 81 l 92 600 q 92 637 85 653 q 78 669 60 669 q 43 669 12 654 l 10 654 q 6 654 4 659 q 3 664 7 665 l 127 724 l 132 725 q 134 725 136 723 q 139 721 139 718 l 139 195 l 284 308 q 318 333 318 351 q 318 374 255 374 q 252 374 252 380 q 252 386 255 386 q 282 386 296 385 l 367 384 l 433 385 q 445 386 468 386 q 470 386 470 380 q 470 374 468 374 q 393 374 302 305 l 238 256 l 363 81 q 411 12 480 12 q 482 12 482 6 q 482 0 480 0 z"},"u":{"x_min":0,"x_max":490,"ha":490,"o":"m 484 55 q 488 55 490 50 q 491 46 487 44 l 375 -8 l 371 -9 q 362 -9 352 14 q 343 36 343 71 l 343 80 q 302 34 262 14 q 222 -7 180 -7 q 131 -7 104 24 q 76 55 76 115 l 76 270 q 76 311 70 328 q 63 346 47 346 q 32 346 11 336 l 9 336 q 5 336 4 341 q 2 346 6 347 l 111 394 l 115 395 q 117 395 120 393 q 123 391 123 388 l 123 145 q 123 85 144 56 q 165 27 207 27 q 242 27 278 46 q 314 64 343 97 l 343 270 q 343 311 336 328 q 330 346 313 346 q 298 346 277 336 l 275 336 q 271 336 270 341 q 269 346 273 347 l 378 394 l 381 395 q 384 395 386 393 q 389 391 389 388 l 389 105 q 389 71 398 56 q 406 40 426 40 q 436 40 450 44 q 465 49 482 55 z"},"]":{"x_min":0,"x_max":274,"ha":274,"o":"m 171 -117 l 38 -117 q 35 -117 35 -111 q 35 -105 38 -105 q 79 -105 98 -99 q 118 -93 125 -78 q 132 -64 132 -34 l 132 642 q 132 672 125 686 q 118 701 98 707 q 79 713 38 713 q 35 713 35 719 q 35 725 38 725 l 171 725 q 177 725 178 724 q 180 722 180 715 l 180 -106 q 180 -113 178 -115 q 177 -117 171 -117 z"},"U":{"x_min":0,"x_max":764,"ha":764,"o":"m 726 0 l 649 1 l 602 0 q 590 0 587 3 q 584 6 584 19 l 584 99 q 519 40 460 14 q 401 -12 332 -12 q 269 -12 220 12 q 171 36 143 81 q 115 126 115 186 l 115 544 q 115 574 108 588 q 102 602 84 608 q 65 613 26 613 q 23 613 23 619 q 23 625 26 625 l 74 624 q 114 622 140 622 q 168 622 210 624 l 256 625 q 259 625 259 619 q 259 613 256 613 q 217 613 198 607 q 180 601 174 586 q 167 572 167 542 l 167 221 q 167 120 218 66 q 268 13 356 13 q 416 13 469 36 q 522 59 584 114 l 584 542 q 584 572 578 586 q 571 601 552 607 q 534 613 495 613 q 492 613 492 619 q 492 625 495 625 l 542 624 q 584 622 611 622 q 636 622 678 624 l 726 625 q 729 625 729 619 q 729 613 726 613 q 687 613 668 608 q 650 602 643 588 q 636 574 636 544 l 636 81 q 636 51 643 36 q 650 22 668 17 q 687 12 726 12 q 729 12 729 6 q 729 0 726 0 z"},"o":{"x_min":0,"x_max":477,"ha":477,"o":"m 37 198 q 37 263 68 308 q 100 354 148 376 q 197 399 248 399 q 306 399 350 370 q 393 341 416 294 q 440 246 440 193 q 440 131 412 84 q 383 37 335 12 q 287 -13 230 -13 q 173 -13 129 16 q 85 44 61 92 q 37 141 37 198 z m 382 167 q 382 227 361 276 q 340 324 302 352 q 264 380 215 380 q 158 380 126 340 q 94 301 94 227 q 94 167 115 116 q 136 66 173 36 q 210 5 258 5 q 316 5 349 44 q 382 83 382 167 z"},"N":{"x_min":0,"x_max":725,"ha":725,"o":"m 699 613 q 656 613 638 592 q 621 571 621 520 l 621 -11 q 621 -13 616 -14 q 611 -15 609 -13 l 157 543 l 140 562 l 140 104 q 140 53 157 32 q 174 12 216 12 q 219 12 219 6 q 219 0 216 0 q 192 0 179 1 l 131 2 l 82 1 q 69 0 43 0 q 41 0 41 6 q 41 12 43 12 q 86 12 102 32 q 118 52 118 104 l 118 583 q 83 613 46 613 q 43 613 43 619 q 43 625 46 625 l 82 624 q 93 623 113 623 q 130 623 141 624 q 152 625 158 625 q 165 625 170 622 q 174 618 180 607 q 191 589 204 573 l 599 82 l 599 520 q 599 571 583 592 q 567 613 525 613 q 523 613 523 619 q 523 625 525 625 l 563 624 q 593 622 611 622 q 628 622 660 624 l 699 625 q 702 625 702 619 q 702 613 699 613 z"},"+":{"x_min":0,"x_max":398,"ha":398,"o":"m 369 190 q 369 183 368 177 q 366 171 364 171 l 218 171 l 218 25 q 218 23 211 22 q 204 20 196 20 q 180 20 180 23 l 180 171 l 34 171 q 32 171 30 178 q 29 184 29 191 q 29 197 30 202 q 31 208 33 208 l 180 208 l 180 354 q 180 356 186 358 q 192 359 199 359 q 206 359 212 358 q 218 356 218 354 l 218 208 l 364 208 q 366 208 368 202 q 369 197 369 190 z"},"G":{"x_min":0,"x_max":713,"ha":713,"o":"m 49 305 q 49 402 98 477 q 148 552 234 594 q 321 636 430 636 q 479 636 522 626 q 566 616 595 598 q 602 593 604 590 q 605 586 606 582 q 606 577 606 575 l 618 470 q 618 467 612 466 q 607 466 606 469 q 587 540 531 578 q 475 615 389 615 q 257 615 184 542 q 111 469 111 340 q 111 244 152 168 q 193 91 266 48 q 338 5 428 5 q 482 5 512 14 q 541 23 554 49 q 568 75 568 126 q 568 178 561 198 q 554 219 531 226 q 508 233 451 233 q 445 233 445 241 q 445 244 446 246 q 448 249 450 249 q 527 244 574 244 q 619 244 670 247 q 672 247 674 244 q 675 242 675 240 q 675 233 670 233 q 644 234 633 226 q 622 219 619 196 q 616 173 616 116 q 616 71 620 52 q 623 33 623 28 q 623 22 621 20 q 619 18 612 16 q 495 -12 404 -12 q 295 -12 214 30 q 134 72 92 144 q 49 216 49 305 z"},"q":{"x_min":0,"x_max":484,"ha":484,"o":"m 468 -275 q 444 -275 431 -274 l 378 -273 l 321 -274 q 305 -275 276 -275 q 274 -275 274 -269 q 274 -263 276 -263 q 311 -263 328 -258 q 344 -252 350 -238 q 356 -224 356 -194 l 356 76 q 319 36 280 12 q 240 -13 191 -13 q 149 -13 114 9 q 79 31 58 72 q 37 114 37 171 q 37 251 70 302 q 102 354 151 376 q 200 399 253 399 q 316 399 382 365 l 446 388 l 448 389 q 451 389 452 384 q 453 380 450 379 q 426 364 414 345 q 402 326 402 295 l 402 -194 q 402 -224 407 -238 q 412 -252 426 -258 q 440 -263 468 -263 q 470 -263 470 -269 q 470 -275 468 -275 z m 356 93 l 356 270 q 356 320 319 350 q 282 380 220 380 q 94 380 94 202 q 94 115 129 65 q 164 15 221 15 q 257 15 290 36 q 322 56 356 93 z"},"d":{"x_min":0,"x_max":513,"ha":513,"o":"m 507 55 q 511 55 512 50 q 514 45 510 43 l 407 -6 q 403 -8 399 -8 q 385 -8 376 14 q 366 37 365 78 q 327 37 286 12 q 244 -13 193 -13 q 151 -13 116 11 q 80 35 58 78 q 37 122 37 177 q 37 247 72 298 q 107 348 160 374 q 213 399 265 399 q 318 399 365 368 l 365 599 q 365 636 358 652 q 350 668 331 668 q 323 668 310 664 q 298 659 283 653 l 281 653 q 277 653 276 658 q 275 662 278 664 l 400 724 q 402 725 405 725 q 407 725 410 723 q 412 721 412 718 l 412 108 q 412 71 420 55 q 429 39 450 39 q 481 39 505 54 z m 365 94 l 365 306 q 339 341 308 360 q 278 380 235 380 q 170 380 131 334 q 92 288 92 206 q 92 151 110 109 q 128 67 159 44 q 190 20 228 20 q 266 20 299 40 q 332 59 365 94 z"},"1":{"x_min":0,"x_max":391,"ha":391,"o":"m 78 12 q 126 12 150 18 q 173 23 182 37 q 191 51 191 81 l 191 508 q 191 556 167 556 q 154 556 132 544 q 109 531 73 504 l 71 503 q 67 503 65 508 q 63 513 67 515 l 225 632 q 230 635 232 635 q 234 635 236 633 q 237 631 237 629 l 237 81 q 237 50 245 36 q 253 22 276 17 q 299 12 350 12 q 352 12 352 6 q 352 0 350 0 q 314 0 293 1 l 214 2 l 136 1 q 115 0 78 0 q 76 0 76 6 q 76 12 78 12 z"},"5":{"x_min":0,"x_max":444,"ha":444,"o":"m 395 188 q 395 93 340 40 q 286 -12 202 -12 q 155 -12 118 6 q 81 25 49 63 l 48 65 q 48 69 52 72 q 56 74 58 71 q 83 41 118 26 q 153 12 193 12 q 265 12 301 58 q 337 103 337 177 q 337 255 296 300 q 256 346 172 346 q 113 346 80 333 q 75 333 72 336 q 69 340 70 345 l 102 613 q 103 620 105 622 q 107 625 115 625 q 250 625 294 626 q 338 628 352 633 q 365 638 373 654 q 373 656 377 656 q 380 656 382 654 q 385 653 384 651 l 372 596 q 369 585 364 582 q 358 579 344 579 l 139 584 q 126 584 124 570 l 99 359 q 159 374 208 374 q 295 374 345 326 q 395 278 395 188 z"}}}
